<?xml version="1.0" encoding="UTF-8"?>
<svg id="Calque_1" data-name="Calque 1" xmlns="http://www.w3.org/2000/svg" viewBox="0 0 600 450">
  <defs>
    <style>
      .cls-1 {
        fill: #fff;
      }
    </style>
  </defs>
  <path id="Bande" class="cls-1" d="M67.27,150.64s-7.23,12.21-11.05,10.57c.48,4.23,20.39,17.12,23.6,19.1s46.11,18.96,50.75,20.05,53.91,13.67,64.57,30.25,14.36,23.68,14.95,28.27c3.73,1.59,52.82,14.15,52.82,14.15l32.76,8.24s19.49,4.03,25.35,3.84c-1.65-7.32-8.79-31.48-10.62-34.78s-4.94-17.34-21.69-33.13c-16.75-15.79-54.73-25.12-69.92-27.23s-66.81-11.07-66.81-11.07c0,0-49.79-10.16-55.46-14.83-2.29-1.46-29.25-13.44-29.25-13.44Z"/>
  <path id="Arriere" class="cls-1" d="M79.89,140.66s-11.89,9.98-15.73,14.52-8,10.22-14.06,2.49c.7-6.98,3.52-18.98,3.52-18.98l3.95-11.84s3.14-7.54,4.6-17.04,5.68-19.61,5.68-19.61l-.54,20.55s-.65,10.65,2.92,16.28,8.91,13.35,9.68,13.63Z"/>
  <path id="Devant" class="cls-1" d="M390.38,203.93s23.11,18.17,28.56,47.77,7.01,37.13,7.01,37.13l65.17-3.38,38.16-4.93s31.67-5.19,26.48-18.95-23.11-23.89-53.22-34.53-53.22-18.43-53.22-18.43l-14.8-5.71-7.27-2.86-11.42-7.27-25.44,11.16Z"/>
</svg>